<?xml version="1.0" encoding="utf-8"?>
<!-- Generator: Adobe Illustrator 24.0.3, SVG Export Plug-In . SVG Version: 6.00 Build 0)  -->
<svg version="1.1" id="Layer_1" xmlns="http://www.w3.org/2000/svg" xmlns:xlink="http://www.w3.org/1999/xlink" x="0px" y="0px"
	 viewBox="0 0 2084 872" style="enable-background:new 0 0 2084 872;" xml:space="preserve">
<style type="text/css">
	.st0{fill:#FE6A67;}
	.st1{fill:#7F5DCC;}
</style>
<title>Asset 22</title>
<g>
	<g id="Layer_2_1_">
		<g id="Layer_1-2">
			
				<image style="overflow:visible;opacity:0.12;enable-background:new    ;" width="2084" height="872" xlink:href="3FCCC0F91D6FEA9A.png"  transform="matrix(1.0156 0 0 1.014 -20.2048 0)">
			</image>
			<path class="st0" d="M2096.2,104v780.1H-20.2V459c16.7-13.7,35-26.4,42-32.1C56.2,398.8,91,372.4,130,350.9
				c173.1-95.2,342.1-66.7,506.6,29.9c91.9,54,181.6,116.6,285.4,141.5c83.9,20.2,174.3,13.9,253.9-19.5
				c168.4-70.5,278.2-231.7,444-310.6C1762.8,124.4,1936.3,85.6,2096.2,104z"/>
			<path class="st1" d="M1707.5,361.7c124.9-41.6,257.5-73.6,388.8-95.9v618.4h-1510C720.2,864.5,861,871.5,985,821.6
				c155-62.4,254.2-200.9,386-298C1470.3,450.7,1587.8,401.5,1707.5,361.7z"/>
		</g>
	</g>
</g>
</svg>
