<?xml version="1.0" encoding="utf-8"?>
<!-- Generator: Adobe Illustrator 22.0.0, SVG Export Plug-In . SVG Version: 6.00 Build 0)  -->
<svg version="1.1" id="Layer_1" xmlns="http://www.w3.org/2000/svg" xmlns:xlink="http://www.w3.org/1999/xlink" x="0px" y="0px"
	 viewBox="0 0 1923 1704" style="enable-background:new 0 0 1923 1704;" xml:space="preserve">
<style type="text/css">
	.st0{fill:#FE6A67;}
	.st1{fill:#7F5DCC;}
</style>
<title>Asset 18</title>
<g>
	<g id="Layer_2_1_">
		<g id="Layer_1-2">
			
				<image style="overflow:visible;opacity:0.12;enable-background:new    ;" width="2073" height="1540" xlink:href="98DDDA5B.png"  transform="matrix(1 0 0 1 -74 0)">
			</image>
			<path class="st0" d="M1,472c0.1-16.5,52.4-51.4,64.7-61.5c30.3-24.9,61-48.2,95.4-67.2c152.6-84.3,301.6-59,446.6,26.5
				c81,47.8,160.1,103.2,251.6,125.3c74,17.9,153.6,12.3,223.8-17.2c148.5-62.4,245.2-205.1,391.5-274.9
				c130.6-62.3,289.7-96.9,434.7-76.4c4.8,0.7,9.6,1.4,14.4,2.4v1381H1V472z"/>
			<path class="st1" d="M1920,551.8V1510l0,0v194H1v-196.9c-1.3-0.2-2.7-0.4-4-0.6c1.6-2,3.2-4.1,4.7-6.1
				c145.8-186.5,333.6-365.1,578.4-411.7c123-23.4,255-12.1,370-58.4c131.8-53.1,216.2-171.2,328.3-254
				c84.3-62.2,184.3-104.1,286-138C1680.4,599.7,1799.3,570.8,1920,551.8z"/>
		</g>
	</g>
</g>
</svg>
