<svg id="Layer_1" data-name="Layer 1" xmlns="http://www.w3.org/2000/svg" viewBox="0 0 2073.53 1682.09"><defs><style>.cls-1{fill:#fe6a67;}.cls-2{fill:#7f5dcc;}</style></defs><title>footer-background</title><g id="Layer_2" data-name="Layer 2"><g id="Layer_1-2" data-name="Layer 1-2"><path class="cls-1" d="M-.13,551.26c.13-19.94,56.51-62.21,69.8-74.46,32.64-30.13,65.77-58.32,102.82-81.34C337,293.37,497.71,324,654,427.55c87.34,57.88,172.65,125,271.27,151.71,79.8,21.63,165.68,14.85,241.32-20.85,160.11-75.53,264.42-248.31,422.13-332.8,140.82-75.44,312.35-117.38,468.71-92.54,5.2.82,10.4,1.7,15.55,2.87V1808H-.13Z" transform="translate(0.27 -125.91)"/><path class="cls-2" d="M2073.27,582.8V1598.39h0V1804H4.05V1595.31c-1.45-.23-2.89-.45-4.32-.65,1.71-2.12,3.4-4.31,5.11-6.45,157.25-197.7,359.69-386.94,623.65-436.31,132.63-24.81,275-12.85,399-61.94,142.13-56.26,233.09-181.47,354-269.2,90.92-65.94,198.71-110.34,308.39-146.26A2426.59,2426.59,0,0,1,2073.27,582.8Z" transform="translate(0.27 -125.91)"/></g></g></svg>