<svg xmlns="http://www.w3.org/2000/svg" viewBox="0 0 49.55 84.09"><defs><style>.cls-1{fill:#fff;}</style></defs><title>logo</title><g id="Layer_2" data-name="Layer 2"><g id="Layer_1-2" data-name="Layer 1"><path class="cls-1" d="M49.5,49.46l0,7a.54.54,0,0,1-.55.56l-27.17.21a10.25,10.25,0,0,0-2,.43l-.09,0a7.27,7.27,0,0,0-2.61,1.52,7.35,7.35,0,0,0-1.74,2.58,9.56,9.56,0,0,0-.59,3.56,7.69,7.69,0,0,0,.63,3.09A6.94,6.94,0,0,0,17.32,71a9.52,9.52,0,0,0,3.35,1.73,17,17,0,0,0,4.93.6c.39,0,.91,0,1.56-.05s1.4-.09,2.22-.16,1.72-.19,2.67-.32,2-.3,3-.5l.07,10.08c-1.17.28-2.24.52-3.22.73s-1.88.36-2.76.49-1.72.24-2.55.32-1.67.13-2.56.13a27.68,27.68,0,0,1-10.14-1.56,19.2,19.2,0,0,1-6.82-4.3,16.23,16.23,0,0,1-3.84-6A20.68,20.68,0,0,1,2,65.32,19.07,19.07,0,0,1,3.3,57.87c.06-.16.11-.3.18-.45h0c0-.16.12-.31.18-.46a16.17,16.17,0,0,1,4.41-5.83A19.82,19.82,0,0,1,15,47.5h0a23.14,23.14,0,0,1,6.63-.93l7.43-.06a3.18,3.18,0,0,1-.16-.32,5.88,5.88,0,0,1-.48-1.36c-.14-.66-.28-1.3-.4-1.93-.24-1.29-.49-2.55-.75-3.75A9.77,9.77,0,0,0,26.05,36a6.42,6.42,0,0,0-2.37-2.19,7.13,7.13,0,0,0-3-.74,9.11,9.11,0,0,0-2.49.28L7.79,35.81a.61.61,0,0,1-.74-.58l0-6.69a3.37,3.37,0,0,1,.48-1.8.1.1,0,0,0,0,0,3.42,3.42,0,0,1,2-1.47c4.55-1.36,9.57-2.92,14.34-3a16.57,16.57,0,0,1,8,1.69l.34.18a15.4,15.4,0,0,1,2.46,1.69,13.89,13.89,0,0,1,3.46,4.38,18,18,0,0,1,1.76,5.76c.15,1.21.35,2.42.58,3.67a18.77,18.77,0,0,0,1,3.36A7,7,0,0,0,43,45.4a2.76,2.76,0,0,0,1.26.42c.67.13,1.48.24,2.29.32A3.36,3.36,0,0,1,49.5,49.46Z"/><path class="cls-1" d="M5.33,16.59,37.77,8.41C43.11,7.06,40.84-1.2,35.49.15L3.05,8.33C-2.29,9.67,0,17.94,5.33,16.59Z"/></g></g></svg>