<svg xmlns="http://www.w3.org/2000/svg" viewBox="0 0 978.68 978.67"><defs><style>.cls-1{fill:#fff;}</style></defs><title>pattterrn</title><g id="Layer_2" data-name="Layer 2"><g id="Layer_1-2" data-name="Layer 1"><path class="cls-1" d="M694.35,185.58l94.23,53.34a15.15,15.15,0,0,1,.23,26.23l-93.32,54.94a15.14,15.14,0,0,1-22.82-12.93l-.92-108.27A15.14,15.14,0,0,1,694.35,185.58Z"/><path class="cls-1" d="M287,185.58l-94.23,53.34a15.15,15.15,0,0,0-.23,26.23l93.31,54.94a15.15,15.15,0,0,0,22.83-12.93l.92-108.27A15.14,15.14,0,0,0,287,185.58Z"/><circle class="cls-1" cx="513.17" cy="252.9" r="54.37" transform="translate(-28.52 436.93) rotate(-45)"/><path class="cls-1" d="M568,499.54l-93.32,54.94a15.14,15.14,0,0,1-22.82-12.92l-.92-108.28A15.14,15.14,0,0,1,473.51,420l94.23,53.34A15.15,15.15,0,0,1,568,499.54Z"/><path class="cls-1" d="M694.35,672l94.23,53.34a15.15,15.15,0,0,1,.23,26.23l-93.32,54.94a15.14,15.14,0,0,1-22.82-12.93l-.92-108.27A15.14,15.14,0,0,1,694.35,672Z"/><path class="cls-1" d="M287,672l-94.23,53.34a15.15,15.15,0,0,0-.23,26.23l93.31,54.94a15.15,15.15,0,0,0,22.83-12.93l.92-108.27A15.14,15.14,0,0,0,287,672Z"/><circle class="cls-1" cx="247.35" cy="487.29" r="54.37"/><circle class="cls-1" cx="734.01" cy="487.29" r="54.37"/><circle class="cls-1" cx="513.17" cy="739.33" r="54.37" transform="translate(-372.48 579.41) rotate(-45)"/><path class="cls-1" d="M924.1,473.31a15.14,15.14,0,0,0-.22,26.23l54.8,32.27V442.42Z"/><path class="cls-1" d="M61.34,541.56l.92-108.28A15.14,15.14,0,0,0,39.66,420L0,442.42v89.39l38.51,22.67A15.15,15.15,0,0,0,61.34,541.56Z"/><path class="cls-1" d="M567.74,964.7l-94.23-53.34a15.14,15.14,0,0,0-22.6,13.3l.45,54h124A15,15,0,0,0,567.74,964.7Z"/><path class="cls-1" d="M451.83,54.27a15.14,15.14,0,0,0,22.82,12.92L568,12.25A15,15,0,0,0,575.41,0h-124Z"/><path class="cls-1" d="M916.44,0a14.94,14.94,0,0,0,7.44,12.25l54.8,32.27V0Z"/><path class="cls-1" d="M61.8,978.67l.46-54a15.14,15.14,0,0,0-22.6-13.3L0,933.8v44.87Z"/><path class="cls-1" d="M978.68,933.8,924.1,964.7a15,15,0,0,0-7.66,14h62.24Z"/><path class="cls-1" d="M0,0V44.52L38.51,67.19A15.14,15.14,0,0,0,61.34,54.27L61.8,0Z"/><path class="cls-1" d="M274.94,931.82a54.38,54.38,0,0,0-82,46.85H301.72A54.33,54.33,0,0,0,274.94,931.82Z"/><path class="cls-1" d="M219.77,46.85a54.37,54.37,0,0,0,74.44-19.26A54.11,54.11,0,0,0,301.72,0H193A54.33,54.33,0,0,0,219.77,46.85Z"/><path class="cls-1" d="M761.59,931.82a54.36,54.36,0,0,0-82,46.85H788.37A54.31,54.31,0,0,0,761.59,931.82Z"/><path class="cls-1" d="M706.42,46.85a54.37,54.37,0,0,0,74.44-19.26A54.11,54.11,0,0,0,788.37,0H679.64A54.32,54.32,0,0,0,706.42,46.85Z"/><path class="cls-1" d="M931.82,711.74a54.36,54.36,0,0,0,46.86,82V685A54.34,54.34,0,0,0,931.82,711.74Z"/><path class="cls-1" d="M46.85,766.91a54.37,54.37,0,0,0-19.26-74.44A54.11,54.11,0,0,0,0,685V793.69A54.3,54.3,0,0,0,46.85,766.91Z"/><path class="cls-1" d="M46.85,280.48A54.37,54.37,0,0,0,27.59,206,54.11,54.11,0,0,0,0,198.53V307.26A54.3,54.3,0,0,0,46.85,280.48Z"/><path class="cls-1" d="M931.82,225.31a54.36,54.36,0,0,0,46.86,81.95V198.53A54.34,54.34,0,0,0,931.82,225.31Z"/></g></g></svg>